<svg xmlns="http://www.w3.org/2000/svg" version="1.1" xmlns:xlink="http://www.w3.org/1999/xlink" xmlns:svgjs="http://svgjs.dev/svgjs" width="1920" height="1080" preserveAspectRatio="none" viewBox="0 0 1920 1080">
    <g mask="url(&quot;#SvgjsMask1042&quot;)" fill="none">
        <rect width="1920" height="1080" x="0" y="0" fill="rgba(77, 144, 120, 1)"></rect>
        <path d="M-37.63 359.11 a92.1 92.1 0 1 0 184.2 0 a92.1 92.1 0 1 0 -184.2 0z" fill="rgba(58, 183, 149, 1)"></path>
        <path d="M1385.01 696.64L1485.95 696.64L1485.95 797.58L1385.01 797.58z" fill="rgba(58, 183, 149, 1)"></path>
        <path d="M121.11 424.6a95.89 95.89 0 1 0-151.82-117.18z" fill="rgba(58, 183, 149, 1)"></path>
        <path d="M1734.88 391.81 a66.5 66.5 0 1 0 133 0 a66.5 66.5 0 1 0 -133 0z" stroke="rgba(58, 183, 149, 1)"></path>
        <path d="M1717.96 393.72a55.23 55.23 0 1 0-82.97 72.93z" fill="rgba(255, 60, 56, 1)"></path>
        <path d="M1520.96 1053.28a19.06 19.06 0 1 0-19.29 32.88z" stroke="rgba(255, 183, 3, 1)"></path>
        <path d="M1106.63 627.3L1147.3 627.3L1147.3 704.13L1106.63 704.13z" stroke="rgba(255, 60, 56, 1)"></path>
        <path d="M917.3 780.05 a58.69 58.69 0 1 0 117.38 0 a58.69 58.69 0 1 0 -117.38 0z" stroke="rgba(255, 60, 56, 1)"></path>
        <path d="M263.91 29.9 a102.01 102.01 0 1 0 204.02 0 a102.01 102.01 0 1 0 -204.02 0z" stroke="rgba(255, 60, 56, 1)"></path>
        <path d="M1077.33 885.03L1124.39 885.03L1124.39 932.09L1077.33 932.09z" stroke="rgba(58, 183, 149, 1)"></path>
        <path d="M1560.5 779.31 a34.77 34.77 0 1 0 69.54 0 a34.77 34.77 0 1 0 -69.54 0z" stroke="rgba(58, 183, 149, 1)"></path>
        <path d="M-35.51 943.72 a99.02 99.02 0 1 0 198.04 0 a99.02 99.02 0 1 0 -198.04 0z" fill="rgba(17, 138, 178, 1)"></path>
        <path d="M1483.67 1057.75a76.83 76.83 0 1 0 153.64 2.2z" fill="rgba(58, 183, 149, 1)"></path>
        <path d="M628.24 954.62a29.06 29.06 0 1 0-13.01-56.64z" stroke="rgba(17, 138, 178, 1)"></path>
        <path d="M35.93 822.2a14.12 14.12 0 1 0 22.06 17.63z" stroke="rgba(255, 183, 3, 1)"></path>
        <path d="M1841.03 1029.99L1890.68 1029.99L1890.68 1079.64L1841.03 1079.64z" fill="rgba(17, 138, 178, 1)"></path>
        <path d="M188.69 805.6 a33.92 33.92 0 1 0 67.84 0 a33.92 33.92 0 1 0 -67.84 0z" stroke="rgba(17, 138, 178, 1)"></path>
        <path d="M1162.18 796.36 a7.33 7.33 0 1 0 14.66 0 a7.33 7.33 0 1 0 -14.66 0z" fill="rgba(17, 138, 178, 1)"></path>
        <path d="M619.19 939.8 a28.26 28.26 0 1 0 56.52 0 a28.26 28.26 0 1 0 -56.52 0z" fill="rgba(255, 183, 3, 1)"></path>
        <path d="M746.99 286.09a54.54 54.54 0 1 0 105.6-27.37z" stroke="rgba(255, 183, 3, 1)"></path>
        <path d="M423.27 779.29a50.86 50.86 0 1 0 15.83 100.48z" stroke="rgba(255, 183, 3, 1)"></path>
        <path d="M1332.67 753.48L1366.46 753.48L1366.46 787.27L1332.67 787.27z" fill="rgba(58, 183, 149, 1)"></path>
        <path d="M1614.5 442.02L1640.65 442.02L1640.65 468.17L1614.5 468.17z" fill="rgba(58, 183, 149, 1)"></path>
    </g>
    <defs>
        <mask id="SvgjsMask1042">
            <rect width="1920" height="1080" fill="#ffffff"></rect>
        </mask>
    </defs>
</svg>